<svg width="25" height="27" viewBox="0 0 25 27" fill="none" xmlns="http://www.w3.org/2000/svg">
<path d="M18.1049 4.49521C19.3653 4.49521 20.3812 5.54169 20.3327 6.81293C20.2877 7.98348 19.324 8.93108 18.1517 8.95442C18.1355 8.95442 18.1193 8.95442 18.1049 8.95442C17.3371 8.95442 16.661 8.56608 16.2601 7.97629C16.0442 7.65983 15.6883 7.47103 15.3053 7.47103H15.2136C14.8287 7.47103 14.4727 7.66522 14.2552 7.98348C13.8542 8.56967 13.1782 8.95442 12.414 8.95442C11.6497 8.95442 10.9755 8.56967 10.5727 7.98348C10.3552 7.66522 9.99917 7.47103 9.61433 7.47103H9.51908C9.13425 7.47103 8.78183 7.66883 8.5625 7.98528C8.40783 8.21184 8.21184 8.406 7.98708 8.5625C7.67062 8.78 7.47283 9.13425 7.47283 9.51908V10.6824C7.47283 11.0672 7.66702 11.4232 7.98348 11.6407C8.56967 12.0417 8.95267 12.716 8.95267 13.4802C8.95267 14.2444 8.56783 14.9187 7.98348 15.3197C7.66702 15.5372 7.47283 15.8932 7.47283 16.278V17.4414C7.47283 17.8262 7.67062 18.1804 7.98708 18.398C8.21184 18.5526 8.40783 18.7486 8.5625 18.9752C8.78 19.2917 9.13425 19.4894 9.51908 19.4894H9.61433C9.99917 19.4894 10.3552 19.2952 10.5727 18.977C10.9737 18.3907 11.6497 18.006 12.414 18.006C13.1782 18.006 13.8524 18.3907 14.2552 18.977C14.4727 19.2952 14.8287 19.4894 15.2136 19.4894H15.3088C15.6937 19.4894 16.0479 19.2917 16.2654 18.9752C16.4201 18.7486 16.6161 18.5526 16.8427 18.398C17.1609 18.1804 17.3569 17.8262 17.3569 17.4414V16.278C17.3569 15.8932 17.1591 15.539 16.8427 15.3215C16.6161 15.1668 16.4201 14.9708 16.2654 14.7442C16.0479 14.426 15.6937 14.23 15.3088 14.23H15.2136C14.8287 14.23 14.4727 14.4242 14.2552 14.7425C13.8542 15.3287 13.1799 15.7134 12.414 15.7134C11.1535 15.7134 10.1376 14.667 10.1862 13.3957C10.2311 12.2252 11.1948 11.2776 12.3672 11.2542C12.3834 11.2542 12.3996 11.2542 12.414 11.2542C13.1817 11.2542 13.8578 11.6426 14.2588 12.2323C14.4746 12.5488 14.8306 12.7376 15.2136 12.7376H15.3053C15.6883 12.7376 16.0442 12.5488 16.2601 12.2323C16.661 11.6426 17.3371 11.2542 18.1049 11.2542C18.1481 11.2542 18.1894 11.2542 18.2326 11.2578C19.3563 11.3208 20.268 12.2323 20.3309 13.3562C20.3777 14.1761 19.9803 14.9061 19.3563 15.3287C19.0399 15.5444 18.8511 15.9004 18.8511 16.2834V17.4396C18.8511 17.8226 19.0399 18.1786 19.3563 18.3944C19.9785 18.8169 20.3758 19.5469 20.3309 20.3669C20.268 21.4907 19.3563 22.4023 18.2326 22.4652C18.1894 22.467 18.1463 22.4688 18.1049 22.4688C17.3371 22.4688 16.661 22.0804 16.2601 21.4907C16.0442 21.1742 15.6883 20.9854 15.3053 20.9854H15.2136C14.8287 20.9854 14.4727 21.1796 14.2552 21.4978C13.8542 22.0841 13.1799 22.4688 12.414 22.4688C11.648 22.4688 10.9755 22.0841 10.5727 21.4978C10.3552 21.1796 9.99917 20.9854 9.61433 20.9854H9.52267C9.13967 20.9854 8.78367 21.176 8.56783 21.4907C8.16689 22.0804 7.49081 22.4688 6.72303 22.4688C6.67988 22.4688 6.63852 22.4688 6.59537 22.4652C5.47157 22.4023 4.55993 21.4907 4.49701 20.3669C4.45205 19.5469 4.84942 18.8169 5.47157 18.3944C5.78802 18.1786 5.97862 17.8226 5.97862 17.4396V16.2852C5.97862 15.9004 5.78443 15.5444 5.46617 15.3268C4.8782 14.9259 4.49341 14.2498 4.49341 13.4856C4.49341 12.7214 4.8782 12.0453 5.46617 11.6444C5.78443 11.4268 5.97862 11.0708 5.97862 10.686V9.53167C5.97862 9.14867 5.78802 8.79258 5.47157 8.57683C4.84763 8.15431 4.45026 7.42428 4.49701 6.60436C4.55993 5.48056 5.47157 4.56892 6.59537 4.50599C6.63852 4.5042 6.68168 4.5024 6.72303 4.5024C7.49081 4.5024 8.16689 4.89078 8.56783 5.48056C8.78367 5.79702 9.13967 5.98582 9.52267 5.98582H9.61433C9.99917 5.98582 10.3552 5.79162 10.5727 5.47337C10.9737 4.88719 11.6497 4.5024 12.414 4.5024C13.1782 4.5024 13.8524 4.88719 14.2552 5.47337C14.4727 5.79162 14.8287 5.98582 15.2136 5.98582H15.3053C15.6901 5.98582 16.0461 5.79162 16.2637 5.47337C16.6647 4.88719 17.3407 4.5024 18.1049 4.5024M18.1049 0C17.1069 0 16.1378 0.221164 15.2603 0.631127C14.3828 0.221164 13.4137 0 12.4157 0C11.4178 0 10.4487 0.221164 9.57117 0.631127C8.69192 0.221164 7.72457 0 6.72482 0C6.59897 0 6.4713 0.00359617 6.34543 0.0107885C2.92368 0.201385 0.201385 2.92728 0.0107885 6.34723C-0.0629329 7.67242 0.264318 8.976 0.913425 10.0963C0.323655 11.1086 0 12.2719 0 13.4802C0 14.6885 0.323655 15.8501 0.913425 16.8643C0.264318 17.9844 -0.0629329 19.2862 0.0107885 20.6114C0.201385 24.0332 2.92548 26.7572 6.34543 26.9497C6.4713 26.9568 6.59897 26.9604 6.72482 26.9604C7.72277 26.9604 8.69192 26.7392 9.56942 26.3293C10.4468 26.7392 11.416 26.9604 12.414 26.9604C13.4119 26.9604 14.3811 26.7392 15.2585 26.3293C16.136 26.7392 17.1052 26.9604 18.1031 26.9604C18.229 26.9604 18.3566 26.9568 18.4825 26.9497C21.9024 26.7572 24.6265 24.035 24.8172 20.615C24.8908 19.2863 24.5636 17.9808 23.9109 16.8588C24.5618 15.735 24.8908 14.4296 24.8172 13.1008C24.756 12.0094 24.4377 10.9899 23.9199 10.0998C24.4557 9.17742 24.7794 8.11834 24.8225 6.98375C24.8927 5.16589 24.2076 3.37141 22.9472 2.0624C21.6867 0.751598 19.9192 0.00179808 18.1013 0.00179808L18.1049 0Z" fill="#111827"/>
</svg>
